#!OML:ASF F:\VICON\USERDATA\INSTALL\rory3\rory3.ASF
:FULLY-SPECIFIED
:DEGREES
2438
root 0.440745 15.6957 -6.78955 -198.758 227.084 -177.775
lowerback 25.1135 1.47328 -0.945811
upperback 13.3082 1.074 0.240407
thorax 0.740825 0.212492 0.540394
lowerneck -8.14281 0.692266 -4.5142
upperneck -3.88614 1.25334 1.11869
head 0.115402 0.668708 1.13046
rclavicle 5.70015e-014 -9.34288e-015
rhumerus -2.06386 37.4268 -75.5991
rradius 46.568
rwrist 4.86813
rhand -35.5935 7.08898
rfingers 7.12502
rthumb -8.71753 -22.711
lclavicle 5.70015e-014 -9.34288e-015
lhumerus 4.5985 -44.1666 74.2756
lradius 33.4679
lwrist 3.98098
lhand -31.5319 24.1314
lfingers 7.12502
lthumb -4.79679 54.0571
rfemur -34.1256 -6.87072 8.65463
rtibia 67.6924
rfoot -15.2931 -17.4836
rtoes 3.57931
lfemur -32.029 15.5838 -8.89301
ltibia 63.6859
lfoot -9.63582 8.15565
ltoes 1.05136
2439
root 0.436144 15.6991 -6.78649 -198.737 226.88 -177.697
lowerback 25.2115 1.44107 -1.0945
upperback 13.3469 0.997255 0.233861
thorax 0.737333 0.164881 0.635091
lowerneck -8.25831 0.735361 -4.47248
upperneck -3.74565 1.31379 1.05752
head 0.177012 0.696812 1.10733
rclavicle 7.10655e-015 1.59028e-014
rhumerus -1.82653 37.7194 -75.3706
rradius 46.5575
rwrist 5.68195
rhand -35.6801 6.87665
rfingers 7.12502
rthumb -8.80107 -22.9198
lclavicle 7.10655e-015 1.59028e-014
lhumerus 4.51637 -44.0863 74.2467
lradius 33.8508
lwrist 3.89163
lhand -31.405 24.4124
lfingers 7.12502
lthumb -4.67423 54.3408
rfemur -34.1076 -6.93371 8.51881
rtibia 67.6786
rfoot -15.3666 -17.5485
rtoes 3.73326
lfemur -32.1312 15.2014 -9.06889
ltibia 63.6758
lfoot -9.74908 8.35663
ltoes 1.03964
2440
root 0.433353 15.7007 -6.78443 -198.502 226.79 -177.926
lowerback 25.3439 1.38393 -1.00669
upperback 13.3844 0.937719 0.271283
thorax 0.719231 0.136348 0.638678
lowerneck -8.32279 0.761046 -4.36826
upperneck -3.67512 1.34167 0.896318
head 0.209813 0.707391 1.04013
rclavicle -1.09978e-013 5.42682e-014
rhumerus -1.60332 38.0769 -75.1272
rradius 46.5481
rwrist 6.04321
rhand -35.6752 6.65938
rfingers 7.12502
rthumb -8.7964 -23.1373
lclavicle -1.09978e-013 5.42682e-014
lhumerus 4.42494 -43.9297 74.2401
lradius 34.1961
lwrist 3.86559
lhand -31.3406 24.4577
lfingers 7.12502
lthumb -4.61202 54.3875
rfemur -34.0757 -6.83534 8.6444
rtibia 67.6406
rfoot -15.554 -17.598
rtoes 3.74189
lfemur -32.2426 14.9181 -8.95589
ltibia 63.6946
lfoot -9.83221 8.46461
ltoes 0.942792
2441
root 0.431304 15.7024 -6.78225 -198.307 226.744 -178.104
lowerback 25.4958 1.36681 -0.856208
upperback 13.4275 0.941802 0.284466
thorax 0.698736 0.144093 0.565289
lowerneck -8.44397 0.73093 -4.3311
upperneck -3.56786 1.30464 0.835266
head 0.264771 0.686759 1.01544
rclavicle 1.49089e-014 -9.93923e-015
rhumerus -1.43504 38.2882 -74.8796
rradius 46.5435
rwrist 6.07322
rhand -35.6479 6.8327
rfingers 7.12502
rthumb -8.77003 -22.9651
lclavicle 1.49089e-014 -9.93923e-015
lhumerus 4.42963 -43.9181 74.2003
lradius 34.5448
lwrist 3.99527
lhand -31.3201 24.4532
lfingers 7.12502
lthumb -4.5922 54.3834
rfemur -34.0483 -6.66319 8.74089
rtibia 67.5935
rfoot -15.7961 -17.6191
rtoes 4.22103
lfemur -32.3569 14.7556 -8.85859
ltibia 63.7424
lfoot -9.82256 8.51312
ltoes 0.86111
2442
root 0.427866 15.7028 -6.78096 -198.142 226.665 -178.177
lowerback 25.6601 1.37882 -0.804705
upperback 13.425 0.964512 0.263059
thorax 0.619897 0.159019 0.506009
lowerneck -8.53013 0.697156 -4.29769
upperneck -3.51847 1.26175 0.923575
head 0.295693 0.665445 1.03768
rclavicle 4.94477e-014 -3.45885e-014
rhumerus -1.39304 38.4616 -74.7538
rradius 46.5752
rwrist 5.87045
rhand -35.5829 6.98647
rfingers 7.12502
rthumb -8.70727 -22.8139
lclavicle 4.94477e-014 -3.45885e-014
lhumerus 4.38104 -43.7856 74.2287
lradius 34.8574
lwrist 3.98349
lhand -31.2739 24.4724
lfingers 7.12502
lthumb -4.54762 54.4036
rfemur -34.1086 -6.5588 8.78238
rtibia 67.5443
rfoot -15.7723 -17.7753
rtoes 4.38954
lfemur -32.5363 14.6294 -8.86574
ltibia 63.8067
lfoot -9.8408 8.49105
ltoes 0.937663
2443
root 0.423604 15.705 -6.77989 -197.818 226.638 -178.388
lowerback 25.7603 1.37284 -0.738771
upperback 13.4038 0.970391 0.27247
thorax 0.55016 0.165467 0.476315
lowerneck -8.4741 0.694622 -4.26696
upperneck -3.65018 1.25237 1.03012
head 0.245305 0.662709 1.06436
rclavicle -4.18442e-014 2.68359e-015
rhumerus -1.32876 38.7327 -74.6935
rradius 46.5422
rwrist 5.54823
rhand -35.6274 6.90073
rfingers 7.12502
rthumb -8.75025 -22.8979
lclavicle -4.18442e-014 2.68359e-015
lhumerus 4.27937 -43.5524 74.2329
lradius 35.1838
lwrist 4.02567
lhand -31.2674 24.4661
lfingers 7.12502
lthumb -4.54131 54.3974
rfemur -34.2533 -6.47713 8.95994
rtibia 67.4966
rfoot -15.7602 -17.946
rtoes 4.60988
lfemur -32.7689 14.563 -8.76106
ltibia 63.868
lfoot -9.88149 8.4222
ltoes 0.919416
2444
root 0.418635 15.7076 -6.77755 -197.413 226.686 -178.653
lowerback 25.7527 1.32121 -0.732091
upperback 13.4004 0.907318 0.370745
thorax 0.54924 0.129511 0.594107
lowerneck -8.48737 0.749912 -4.54959
upperneck -3.71471 1.35132 1.18523
head 0.22296 0.717525 1.16452
rclavicle -5.63555e-014 -3.97569e-015
rhumerus -1.11761 39.2353 -74.4847
rradius 46.4486
rwrist 5.18406
rhand -35.8825 7.1365
rfingers 7.12502
rthumb -8.99645 -22.6517
lclavicle -5.63555e-014 -3.97569e-015
lhumerus 4.10202 -43.1396 74.336
lradius 35.5238
lwrist 4.18154
lhand -30.6902 24.0906
lfingers 7.12502
lthumb -3.98401 54.0331
rfemur -34.46 -6.34728 9.21512
rtibia 67.4566
rfoot -15.8626 -18.1312
rtoes 4.79253
lfemur -33.0324 14.5567 -8.58671
ltibia 63.9212
lfoot -9.90514 8.36614
ltoes 1.25177
2445
root 0.413411 15.7097 -6.77372 -197.191 226.676 -178.648
lowerback 25.7592 1.25285 -0.968113
upperback 13.3693 0.77171 0.483518
thorax 0.508849 0.044394 0.883125
lowerneck -8.50599 0.80727 -5.08116
upperneck -3.75013 1.47524 1.36262
head 0.207965 0.787638 1.31658
rclavicle -1.99282e-014 2.20651e-014
rhumerus -0.957081 39.9343 -74.1772
rradius 46.4924
rwrist 4.76292
rhand -36.0994 7.6037
rfingers 7.12502
rthumb -9.20572 -22.1754
lclavicle -1.99282e-014 2.20651e-014
lhumerus 3.77662 -42.3372 74.7249
lradius 35.7299
lwrist 4.17845
lhand -29.3022 23.3483
lfingers 7.12502
lthumb -2.64352 53.3117
rfemur -34.6803 -6.20023 9.25152
rtibia 67.4386
rfoot -15.895 -18.2867
rtoes 4.7219
lfemur -33.2851 14.4969 -8.64396
ltibia 63.9532
lfoot -9.969 8.35877
ltoes 1.70935
2446
root 0.408141 15.7123 -6.76935 -197.123 226.639 -178.443
lowerback 25.8408 1.26652 -1.25799
upperback 13.3007 0.728397 0.507869
thorax 0.391162 0.00856188 1.08453
lowerneck -8.41382 0.781447 -5.42883
upperneck -3.89026 1.46548 1.54062
head 0.146497 0.789792 1.43235
rclavicle -2.96189e-014 -1.78906e-015
rhumerus -0.989127 40.4078 -74.0459
rradius 46.6068
rwrist 4.36723
rhand -36.1635 7.73832
rfingers 7.12502
rthumb -9.26752 -22.038
lclavicle -2.96189e-014 -1.78906e-015
lhumerus 3.5312 -41.8034 75.003
lradius 35.9364
lwrist 4.29272
lhand -28.4238 23.1714
lfingers 7.12502
lthumb -1.79523 53.1436
rfemur -34.8985 -6.08269 9.11176
rtibia 67.4473
rfoot -15.9455 -18.2785
rtoes 5.01658
lfemur -33.5028 14.4318 -8.86869
ltibia 63.9741
lfoot -10.0565 8.38261
ltoes 1.81779
2447
root 0.401864 15.7139 -6.76521 -196.993 226.629 -178.347
lowerback 25.9079 1.31123 -1.365
upperback 13.2604 0.761647 0.463133
thorax 0.312978 0.0231247 1.08851
lowerneck -8.29124 0.736592 -5.56545
upperneck -4.06371 1.41093 1.75365
head 0.0721455 0.767716 1.52134
rclavicle 1.57537e-014 -1.15295e-014
rhumerus -1.07876 40.6012 -74.0913
rradius 46.7189
rwrist 4.05595
rhand -36.1032 7.47308
rfingers 7.12502
rthumb -9.20939 -22.3058
lclavicle 1.57537e-014 -1.15295e-014
lhumerus 3.49867 -41.7959 74.9266
lradius 36.2398
lwrist 4.62175
lhand -28.3187 23.3742
lfingers 7.12502
lthumb -1.6937 53.3473
rfemur -35.1059 -5.96272 9.06406
rtibia 67.4798
rfoot -16.0548 -18.2698
rtoes 5.5669
lfemur -33.7156 14.388 -8.98876
ltibia 64.0065
lfoot -10.123 8.38396
ltoes 1.87896
2448
root 0.395357 15.7149 -6.76258 -196.714 226.67 -178.513
lowerback 25.9167 1.29402 -1.25318
upperback 13.329 0.758343 0.444352
thorax 0.387661 0.0250172 1.00538
lowerneck -8.23246 0.710224 -5.75755
upperneck -4.32577 1.38732 1.91438
head -0.0208266 0.762096 1.60451
rclavicle 8.71174e-014 -2.83268e-014
rhumerus -0.96577 40.6913 -74.0566
rradius 46.8354
rwrist 3.80672
rhand -36.0544 7.32555
rfingers 7.12502
rthumb -9.1623 -22.4554
lclavicle 8.71174e-014 -2.83268e-014
lhumerus 3.63481 -41.8749 74.6967
lradius 36.5272
lwrist 5.26981
lhand -28.7861 23.2067
lfingers 7.12502
lthumb -2.14518 53.1757
rfemur -35.2598 -5.75569 9.22949
rtibia 67.5167
rfoot -16.203 -18.2948
rtoes 6.1319
lfemur -33.9033 14.3634 -8.867
ltibia 64.053
lfoot -10.1671 8.33055
ltoes 2.19534
2449
root 0.389129 15.7135 -6.76033 -196.356 226.723 -178.699
lowerback 25.8379 1.25055 -1.13635
upperback 13.4214 0.723829 0.452627
thorax 0.530557 0.009791 0.956763
lowerneck -8.27476 0.655533 -6.0888
upperneck -4.61173 1.34213 2.06313
head -0.104555 0.747801 1.70944
rclavicle 2.89232e-014 1.27222e-014
rhumerus -0.693716 40.7689 -73.9286
rradius 46.8974
rwrist 3.6053
rhand -36.2903 7.5922
rfingers 7.12502
rthumb -9.38989 -22.1786
lclavicle 2.89232e-014 1.27222e-014
lhumerus 3.71376 -41.8363 74.5718
lradius 36.7882
lwrist 6.17076
lhand -29.8388 22.6857
lfingers 7.12502
lthumb -3.16177 52.642
rfemur -35.5094 -5.6023 9.41622
rtibia 67.5547
rfoot -16.3157 -18.2636
rtoes 6.40554
lfemur -34.1757 14.3717 -8.74361
ltibia 64.1091
lfoot -10.2614 8.23376
ltoes 2.68695
2450
root 0.382118 15.714 -6.75517 -196.081 226.709 -178.692
lowerback 25.8085 1.24597 -1.20701
upperback 13.4003 0.704781 0.453661
thorax 0.520204 -0.00255407 1.00285
lowerneck -8.29348 0.588187 -6.29145
upperneck -4.78304 1.26815 2.11376
head -0.153721 0.715627 1.75976
rclavicle -1.13953e-013 1.5704e-014
rhumerus -0.647071 40.8608 -73.9096
rradius 46.9824
rwrist 3.54357
rhand -36.849 7.83047
rfingers 7.12502
rthumb -9.92893 -21.9154
lclavicle -1.13953e-013 1.5704e-014
lhumerus 3.62513 -41.7786 74.589
lradius 36.9702
lwrist 6.69166
lhand -30.5573 22.2934
lfingers 7.12502
lthumb -3.8556 52.2382
rfemur -35.8016 -5.55495 9.43813
rtibia 67.5768
rfoot -16.361 -18.231
rtoes 6.49447
lfemur -34.4908 14.3531 -8.81652
ltibia 64.1567
lfoot -10.4625 8.11522
ltoes 3.14569
2451
root 0.374689 15.7209 -6.7476 -195.867 226.657 -178.704
lowerback 25.9159 1.28069 -1.32218
upperback 13.324 0.727902 0.507727
thorax 0.381813 0.00379892 1.12072
lowerneck -8.23929 0.550365 -6.32172
upperneck -4.85361 1.21283 1.95207
head -0.182293 0.687983 1.71033
rclavicle 9.39258e-014 -4.46272e-014
rhumerus -0.843893 40.8992 -73.9107
rradius 47.1408
rwrist 3.5764
rhand -37.2656 7.96156
rfingers 7.12502
rthumb -10.3309 -21.7647
lclavicle 9.39258e-014 -4.46272e-014
lhumerus 3.48431 -41.7386 74.7365
lradius 37.1021
lwrist 6.7319
lhand -30.7569 22.278
lfingers 7.12502
lthumb -4.04842 52.2193
rfemur -35.9385 -5.53112 9.45708
rtibia 67.5608
rfoot -16.3708 -18.2509
rtoes 6.73132
lfemur -34.686 14.3006 -8.88009
ltibia 64.1852
lfoot -10.6427 7.97167
ltoes 3.39518
2452
root 0.367544 15.7262 -6.74115 -195.474 226.631 -179.01
lowerback 26.0637 1.29945 -1.18413
upperback 13.2695 0.78412 0.576053
thorax 0.250617 0.0384399 1.10146
lowerneck -8.30109 0.508884 -6.17802
upperneck -4.7974 1.14578 1.70139
head -0.149945 0.650003 1.60236
rclavicle 5.53615e-014 -2.40529e-014
rhumerus -1.02069 40.803 -73.9225
rradius 47.287
rwrist 3.57844
rhand -37.2033 7.95312
rfingers 7.12502
rthumb -10.2708 -21.7761
lclavicle 5.53615e-014 -2.40529e-014
lhumerus 3.40175 -41.7626 74.8348
lradius 37.2765
lwrist 6.57464
lhand -30.7127 22.3132
lfingers 7.12502
lthumb -4.0057 52.2553
rfemur -36.0314 -5.52699 9.72117
rtibia 67.5381
rfoot -16.3596 -18.3662
rtoes 6.80324
lfemur -34.8699 14.2565 -8.7024
ltibia 64.2198
lfoot -10.733 7.81735
ltoes 3.36218
